<svg id="图层_1" data-name="图层 1" xmlns="http://www.w3.org/2000/svg" xmlns:xlink="http://www.w3.org/1999/xlink" viewBox="0 0 500 500"><defs><style>.cls-1{fill:url(#未命名的渐变_13);}.cls-2{fill:none;}.cls-3,.cls-4{fill:#fff;}.cls-3{fill-rule:evenodd;}</style><linearGradient id="未命名的渐变_13" x1="251.17" y1="2.44" x2="248.74" y2="515.68" gradientUnits="userSpaceOnUse"><stop offset="0" stop-color="#faa64c"/><stop offset="0.58" stop-color="#ff5071"/></linearGradient></defs><rect class="cls-1" width="500" height="500"/><rect class="cls-2" width="500" height="500"/><path class="cls-3" d="M348.48,311.52H357v4.7a15.23,15.23,0,0,1,4.83-4.33,12,12,0,0,1,5.83-1.44,9.31,9.31,0,0,1,5.66,1.87,13.28,13.28,0,0,1,4.14,5.51,14.8,14.8,0,0,1,4.94-5.51,11.65,11.65,0,0,1,6.39-1.87,10.32,10.32,0,0,1,6.32,2,11.29,11.29,0,0,1,3.94,5.34c.8,2.19,1.19,5.74,1.19,10.66v24.08h-8.54V331.71q0-6.91-1.42-9.42a4.62,4.62,0,0,0-4.27-2.52,5.69,5.69,0,0,0-3.91,1.54,9.12,9.12,0,0,0-2.55,4.2,31.49,31.49,0,0,0-.83,8.55v18.51h-8.54V332.65a33.73,33.73,0,0,0-.67-7.95,7.46,7.46,0,0,0-2-3.72,4.64,4.64,0,0,0-3.25-1.21,5.61,5.61,0,0,0-3.84,1.54,9.31,9.31,0,0,0-2.58,4.33,31.35,31.35,0,0,0-.86,8.62v18.31h-8.48Zm-51.1,7.18L289,323.46a14.07,14.07,0,0,0-4.6-3.55,13.31,13.31,0,0,0-5.4-1,12.31,12.31,0,0,0-9.1,3.46,12,12,0,0,0-3.48,8.88,11.55,11.55,0,0,0,3.34,8.56,11.94,11.94,0,0,0,8.78,3.32q6.75,0,10.46-4.77l8,5.64q-6.5,8.52-18.15,8.52-10.53,0-16.49-6.41a22,22,0,0,1-3-26,21,21,0,0,1,8.08-7.89,24.83,24.83,0,0,1,22.28-.47A19.91,19.91,0,0,1,297.38,318.7Zm-70-20.07h0c-8.91.17-14.63,4.78-17.06,13.71l-.29,1.13,9.57,2.3.13-.67c.92-4.86,3.53-7.38,8-7.69,4.33.15,6.49,2.14,6.64,6.1-.3,4.88-3.26,7.3-9.12,7.3h-4.78v8.53h6.73c5.7.16,8.67,2.51,9.13,7.14.15,5.88-2.8,8.66-9.11,8.51-5-.16-7.8-2.9-8.41-8.4l-.08-.73L209,338.17l.12.62c1.85,9.45,8,14.31,18.42,14.48,11.57-.52,17.78-6,18.45-16.31l0-.4c-.28-5.26-3.19-9.24-8.66-11.94l-.36-.17.24-.12c4.54-2.3,6.85-5.85,6.85-10.6C243.73,303.88,238.08,298.8,227.35,298.63Zm-84.67,27.74a10.84,10.84,0,0,0-4-5.75,10.68,10.68,0,0,0-6.66-2.21,11.58,11.58,0,0,0-7.37,2.49,13.76,13.76,0,0,0-3.62,5.47Zm10.23,8H121.39a10.73,10.73,0,0,0,3.68,6.74,11.41,11.41,0,0,0,7.57,2.51,12.86,12.86,0,0,0,9.4-3.91l8.2,3.91a19.68,19.68,0,0,1-7.4,6.71,22.43,22.43,0,0,1-10.14,2.15q-9.21,0-15-6A20.51,20.51,0,0,1,112,331.74q0-9.24,5.75-15.27a19.08,19.08,0,0,1,14.4-6q9.21,0,15,6t5.78,16ZM49.68,296.76h9.58l7.4,34.55,9-34.55h8.08l9.31,34.55,7.26-34.55h9.59L98.43,350.83H89.12l-9.45-34.95-9.18,34.95H61.18Zm380.1,20.78a11.67,11.67,0,1,0,11.66,11.67A11.68,11.68,0,0,0,429.78,317.54Zm-11.94-8.23v4a19.9,19.9,0,1,1,0,31.84v16.48h-9.1v-52.3ZM181.91,321a11.67,11.67,0,1,0,11.66,11.67A11.68,11.68,0,0,0,181.91,321ZM170,300.21V316.7a19.9,19.9,0,1,1,0,31.84v4h-9.1V300.21Zm150.09,19.84a12,12,0,1,0,12,12A12,12,0,0,0,320.06,320.05Zm20.46-8.47v40.94h-8.18v-4.1a20.47,20.47,0,1,1,0-32.74v-4.1Z"/><path class="cls-4" d="M257.33,170.83c.05,9.91,7.18,17.9,15.91,17.85s15.76-8.12,15.71-18a20.11,20.11,0,0,0-.82-5.6l0-.06v-.12A90,90,0,0,1,297.86,187a46.27,46.27,0,0,1,1.76,14.37c0,.72.05,1.48.05,2.28a49.45,49.45,0,0,1-6.93,25.63,2.38,2.38,0,0,0-.44-.66l-18.59-20.2-17.6,10.41-19.18-21.66-29.48,31.9a2.08,2.08,0,0,0-.42.61,49.67,49.67,0,0,1-3.25-6.33,40.63,40.63,0,0,1-4-15.95c0-.24,0-.48,0-.72s0-.58,0-.87v-1.56c0-.39,0-.78,0-1.18s0-1,.07-1.53c0-.12,0-.24,0-.35s0-.38,0-.57l0-.26c.06-.81.15-1.63.25-2.46l0-.28c0-.2.05-.4.08-.6l.06-.38.07-.47.08-.54v0l.06-.36,0,.18,0-.29,0-.11c.06-.32.11-.63.17-.94a1.42,1.42,0,0,0,0-.2c0-.27.11-.53.17-.79l0-.13c.07-.29.13-.57.2-.85l.07-.27c.06-.25.12-.51.19-.76l0-.07c.15-.56.32-1.12.49-1.66,0-.08,0-.16.07-.23.09-.27.17-.53.26-.79a1.34,1.34,0,0,1,.07-.18c.07-.22.15-.45.24-.67l0-.13c.21-.54.42-1.07.64-1.59l.09-.23c.21-.48.43-.95.65-1.42l.11-.22,0,.06a50.11,50.11,0,0,1,18.55-21.79c1.2-1.11,2.38-2.21,3.5-3.32l.55-.56c7.9-8,12.84-16.54,6.18-32.09l-.34-.77A44.27,44.27,0,0,1,257.3,165Zm33.14,62a51,51,0,0,1-5.24,6.22l-70.54.39a49.54,49.54,0,0,1-5.31-6.16Zm-69.32,11.53,58.12-.33h.2c-1,.75-2,1.46-3.11,2.13a49.63,49.63,0,0,1-8.09,4.12l-36.49.2a49.57,49.57,0,0,1-11.13-6l-.15-.11Z"/></svg>