<svg id="图层_1" data-name="图层 1" xmlns="http://www.w3.org/2000/svg" width="500" height="230" viewBox="0 0 500 230">
  <defs>
    <style>
      .cls-1 {
        fill: none;
      }

      .cls-2 {
        fill: #fff;
      }

      .cls-3 {
        isolation: isolate;
      }
    </style>
  </defs>
  <rect class="cls-1" y="-346" width="500" height="500"/>
  <path class="cls-2" d="M263.33,49.83c.05,9.91,7.18,17.9,15.91,17.85S295,59.56,295,49.65a20.11,20.11,0,0,0-.82-5.6l0-.06v-.12A90,90,0,0,1,303.86,66a46.27,46.27,0,0,1,1.76,14.37c0,.72.05,1.48.05,2.28a49.45,49.45,0,0,1-6.93,25.63,2.38,2.38,0,0,0-.44-.66l-18.59-20.2-17.6,10.41L242.93,76.21l-29.48,31.9a2.08,2.08,0,0,0-.42.61,49.67,49.67,0,0,1-3.25-6.33,40.63,40.63,0,0,1-4-16c0-.24,0-.48,0-.72s0-.58,0-.87V83.29c0-.39,0-.78,0-1.18s0-1,.07-1.53c0-.12,0-.24,0-.35s0-.38,0-.57l0-.26c.06-.81.15-1.63.25-2.46l0-.28c0-.2.05-.4.08-.6l.06-.38.07-.47.08-.54v0l.06-.36,0,.18,0-.29,0-.11c.06-.32.11-.63.17-.94a1.42,1.42,0,0,0,0-.2c0-.27.11-.53.17-.79l0-.13c.07-.29.13-.57.2-.85l.07-.27c.06-.25.12-.51.19-.76l0-.07c.15-.56.32-1.12.49-1.66,0-.08,0-.16.07-.23.09-.27.17-.53.26-.79a1.34,1.34,0,0,1,.07-.18c.07-.22.15-.45.24-.67l0-.13c.21-.54.42-1.07.64-1.59l.09-.23c.21-.48.43-1,.65-1.42l.11-.22,0,.06a50.11,50.11,0,0,1,18.55-21.79c1.2-1.11,2.38-2.21,3.5-3.32l.55-.56c7.9-8,12.84-16.54,6.18-32.09l-.34-.77A44.27,44.27,0,0,1,263.3,44Zm33.14,62a51,51,0,0,1-5.24,6.22l-70.54.39a49.54,49.54,0,0,1-5.31-6.16Zm-69.32,11.53,58.12-.33h.2c-1,.75-2,1.46-3.11,2.13a49.63,49.63,0,0,1-8.09,4.12l-36.49.2a49.57,49.57,0,0,1-11.13-6l-.15-.11Z"/>
  <g id="页面-1">
    <g id="logo1">
      <g id="Web3Camp" class="cls-3">
        <g class="cls-3">
          <path class="cls-2" d="M47.64,153.52H58.25l9.8,38,10.67-38h8.63l10.76,38,9.8-38h10.6l-14.33,51.2H92.69L83,170.93l-9.58,33.79H62Z"/>
          <path class="cls-2" d="M137.82,197.18a10.13,10.13,0,0,0,8.19-3.65l7.61,4.38c-3.44,5-8.92,7.83-15.94,7.83-12.29,0-20-8.41-20-19.31s7.82-19.31,19.3-19.31c10.83,0,18.51,8.56,18.51,19.31a21.83,21.83,0,0,1-.37,3.88H127.51C128.83,195.13,132.85,197.18,137.82,197.18ZM146,183a8.87,8.87,0,0,0-9.07-7.38c-5,0-8.48,2.7-9.58,7.38Z"/>
          <path class="cls-2" d="M201.16,186.43c0,10.9-8,19.31-17.85,19.31-5.34,0-9.21-2-11.84-5.34v4.32H162v-51.2h9.44v18.94c2.63-3.36,6.5-5.34,11.84-5.34C193.11,167.12,201.16,175.53,201.16,186.43Zm-9.44,0c0-6.14-4.31-10.31-10.16-10.31s-10.09,4.17-10.09,10.31,4.31,10.31,10.09,10.31S191.72,192.57,191.72,186.43Z"/>
          <path class="cls-2" d="M241,188.92c0,11-8.63,16.82-18.28,16.82-7.68,0-14.63-3.51-17.56-10.83l8.63-5c1.25,3.8,4.1,5.93,8.93,5.93,5.26,0,8.19-2.78,8.19-7S228,182,222.74,182h-2.2l-3.87-5.85L226.76,163h-20v-9.43H238.9v8.34l-9.58,12.43C236,176.27,241,181.38,241,188.92Z"/>
          <path class="cls-2" d="M245.78,179.12c0-15,11.11-26.62,26.62-26.62a25.5,25.5,0,0,1,22,12.06l-8.7,5.05c-2.49-4.53-7.46-7.31-13.31-7.31-10,0-16.6,6.94-16.6,16.82s6.58,16.75,16.6,16.75c5.85,0,10.9-2.78,13.31-7.24l8.7,5a25.3,25.3,0,0,1-22,12.07C256.89,205.74,245.78,194,245.78,179.12Z"/>
          <path class="cls-2" d="M337.64,168.15v36.57H328.2V200.4c-2.63,3.29-6.58,5.34-11.92,5.34-9.72,0-17.77-8.41-17.77-19.31s8.05-19.31,17.77-19.31c5.34,0,9.29,2,11.92,5.34v-4.31Zm-9.44,18.53c0-6.15-4.32-10.31-10.17-10.31s-10.09,4.18-10.08,10.32S312.27,197,318,197,328.21,192.82,328.2,186.68Z"/>
          <path class="cls-2" d="M400.46,182.19v22.53H391V182.85c0-4.32-2.19-6.95-6.14-6.95-4.17,0-6.8,2.78-6.8,8.26v20.56h-9.44V182.85c0-4.32-2.19-6.95-6.14-6.95s-6.88,2.78-6.88,8.26v20.56H346.2V168.15h9.43V172c2.05-3.07,5.49-4.9,10.17-4.9,4.53,0,7.9,1.9,9.94,5.27,2.27-3.29,5.93-5.27,10.9-5.27C395,167.12,400.46,173.05,400.46,182.19Z"/>
          <path class="cls-2" d="M447.64,186.43c0,10.9-8,19.31-17.84,19.31-5.34,0-9.22-2-11.85-5.34v18.94h-9.44V168.15H418v4.31c2.63-3.36,6.51-5.34,11.85-5.34C439.6,167.12,447.64,175.53,447.64,186.43Zm-9.43,0c0-6.14-4.32-10.31-10.17-10.31S418,180.29,418,186.43s4.31,10.31,10.09,10.31S438.21,192.57,438.21,186.43Z"/>
        </g>
      </g>
    </g>
  </g>
</svg>
