<svg id="图层_1" data-name="图层 1" xmlns="http://www.w3.org/2000/svg" width="500" height="120" viewBox="0 0 500 120">
  <defs>
    <style>
      .cls-1 {
        fill: none;
      }

      .cls-2 {
        fill: #fff;
      }

      .cls-3 {
        isolation: isolate;
      }
    </style>
  </defs>
  <rect class="cls-1" y="-190" width="500" height="500"/>
  <path class="cls-2" d="M74.8,47.25c0,7.93,5.74,14.33,12.73,14.29s12.61-6.5,12.56-14.43a15.65,15.65,0,0,0-.65-4.48v-.14a71.88,71.88,0,0,1,7.78,17.73,36.83,36.83,0,0,1,1.41,11.5c0,.57,0,1.18,0,1.83a39.57,39.57,0,0,1-5.54,20.5,2,2,0,0,0-.35-.53L87.9,77.36,73.82,85.68,58.48,68.36,34.89,93.88a1.76,1.76,0,0,0-.33.49A40.91,40.91,0,0,1,32,89.31a32.62,32.62,0,0,1-3.23-12.77c0-.19,0-.38,0-.58l0-.69V74c0-.32,0-.63,0-1s0-.81.05-1.23c0-.09,0-.18,0-.28l0-.45c0-.07,0-.14,0-.21.05-.65.12-1.3.2-2l0-.22.06-.48c0-.1,0-.2.05-.31l.05-.37.07-.43v0l0-.29,0,.14,0-.23v-.09c0-.25.09-.5.14-.75l0-.16c0-.22.08-.43.13-.64l0-.09c.05-.24.1-.46.16-.69l.05-.21c.05-.21.1-.41.16-.61v-.06l.39-1.33.06-.18.21-.63.05-.15c.06-.18.13-.35.19-.53l0-.1c.16-.44.33-.86.51-1.28l.08-.18c.16-.38.33-.76.51-1.13l.09-.19,0,.05A40.09,40.09,0,0,1,47,40.34c1-.89,1.9-1.77,2.8-2.66l.44-.44C56.56,30.86,60.51,24,55.18,11.56L54.91,11a35.4,35.4,0,0,1,19.86,31.6Zm26.51,49.58a39.07,39.07,0,0,1-4.19,5l-56.44.32a39.92,39.92,0,0,1-4.24-4.93Zm-55.46,9.22,46.5-.26h.16q-1.2.9-2.49,1.71a39.73,39.73,0,0,1-6.47,3.29L54.36,111a39.67,39.67,0,0,1-8.91-4.81l-.12-.09Z"/>
  <g id="页面-1">
    <g id="logo1">
      <g id="Web3Camp" class="cls-3">
        <g class="cls-3">
          <path class="cls-2" d="M132.74,44.65h8.7l8.06,31.13,8.74-31.14h7.08l8.84,31.14,8-31.15h8.7l-11.73,42h-9.42l-7.94-27.71L154,86.64h-9.42Z"/>
          <path class="cls-2" d="M206.74,80.43a8.35,8.35,0,0,0,6.72-3L219.7,81c-2.81,4.08-7.31,6.42-13.07,6.43-10.08,0-16.45-6.89-16.45-15.83S196.59,55.77,206,55.77c8.88,0,15.18,7,15.19,15.83a17.88,17.88,0,0,1-.3,3.18H198.28C199.36,78.75,202.66,80.43,206.74,80.43Zm6.72-11.65A7.29,7.29,0,0,0,206,62.73c-4.14,0-7,2.22-7.85,6.06Z"/>
          <path class="cls-2" d="M258.7,71.57c0,8.94-6.59,15.85-14.63,15.85-4.38,0-7.56-1.61-9.72-4.37v3.54h-7.74l0-42h7.74V60.13c2.16-2.76,5.34-4.38,9.72-4.39C252.09,55.74,258.69,62.63,258.7,71.57Zm-7.74,0a8.31,8.31,0,1,0-16.62,0,8.31,8.31,0,1,0,16.62,0Z"/>
          <path class="cls-2" d="M291.4,73.59c0,9-7.07,13.81-15,13.81-6.3,0-12-2.87-14.41-8.87l7.08-4.08c1,3.12,3.36,4.85,7.32,4.85,4.32,0,6.72-2.28,6.72-5.7s-2.4-5.7-6.72-5.7h-1.8l-3.19-4.79,8.28-10.81H263.25V44.57l26.4,0v6.84L281.79,61.6C287.25,63.22,291.39,67.41,291.4,73.59Z"/>
          <path class="cls-2" d="M295.29,65.55c0-12.3,9.11-21.84,21.83-21.85a20.89,20.89,0,0,1,18.06,9.89l-7.13,4.14a12.11,12.11,0,0,0-10.93-6c-8.21,0-13.61,5.71-13.61,13.81s5.41,13.73,13.63,13.73c4.8,0,8.94-2.29,10.92-6l7.14,4.13a20.77,20.77,0,0,1-18.05,9.92C304.43,87.38,295.3,77.79,295.29,65.55Z"/>
          <path class="cls-2" d="M370.65,56.5l0,30h-7.74V83a11.91,11.91,0,0,1-9.77,4.38c-8,0-14.59-6.89-14.59-15.83s6.59-15.84,14.57-15.85a11.94,11.94,0,0,1,9.78,4.38V56.51Zm-7.73,15a8.31,8.31,0,1,0-16.62,0,8.31,8.31,0,1,0,16.62,0Z"/>
          <path class="cls-2" d="M422.19,68V86.47h-7.73l0-17.94c0-3.54-1.8-5.69-5-5.69-3.42,0-5.58,2.28-5.57,6.78V86.48h-7.74l0-17.94c0-3.54-1.8-5.7-5-5.7s-5.64,2.28-5.63,6.78V86.49h-7.74l0-30h7.74v3.18c1.68-2.52,4.5-4,8.34-4A9,9,0,0,1,401.91,60c1.86-2.7,4.86-4.32,8.94-4.32C417.69,55.63,422.19,60.49,422.19,68Z"/>
          <path class="cls-2" d="M460.9,71.45c0,8.93-6.59,15.84-14.63,15.84-4.38,0-7.56-1.61-9.73-4.37V98.46h-7.73l0-42h7.74V60c2.16-2.76,5.34-4.38,9.72-4.39C454.29,55.61,460.89,62.5,460.9,71.45Zm-7.74,0a8.31,8.31,0,1,0-16.62,0,8.31,8.31,0,1,0,16.62,0Z"/>
        </g>
      </g>
    </g>
  </g>
</svg>
