<svg id="图层_1" data-name="图层 1" xmlns="http://www.w3.org/2000/svg" width="500" height="500" viewBox="0 0 500 500">
  <defs>
    <style>
      .cls-1 {
        fill: #fff;
      }
    </style>
  </defs>
  <path class="cls-1" d="M280.61,181.49c.22,39.64,28.72,71.62,63.64,71.42s63.07-32.49,62.85-72.13a81,81,0,0,0-3.28-22.41l-.06-.21,0-.22c0-.19,0-.28,0-.28a358.72,358.72,0,0,1,38.91,88.68,184.57,184.57,0,0,1,7.06,57.47q.18,4.33.21,9.15a198,198,0,0,1-27.74,102.5,9.86,9.86,0,0,0-1.75-2.64L346.13,332l-70.38,41.62L199,287,81.08,414.62a10.18,10.18,0,0,0-1.67,2.46,198.55,198.55,0,0,1-13-25.32c-9.23-18.65-14.87-39.94-16.16-63.82-.05-1-.09-1.92-.13-2.89,0-1.15-.08-2.31-.1-3.48l0-1.12v-3.27c0-.6,0-1.21,0-1.82,0-1.56.05-3.14.1-4.72q.09-3.06.28-6.15l.09-1.41c.05-.74.1-1.5.16-2.25,0-.35,0-.69.08-1.05q.39-4.86,1-9.86c.05-.37.09-.74.14-1.1.1-.79.21-1.59.32-2.38l.21-1.54.28-1.87.34-2.16,0-.16,0-.08v.08l.23-1.45-.12.74.2-1.19.07-.43c.21-1.26.44-2.51.68-3.75,0-.27.1-.55.16-.82.21-1.06.43-2.12.65-3.16l.11-.49c.25-1.16.52-2.3.79-3.43l.26-1.07c.25-1,.51-2,.78-3,0-.1.06-.2.08-.3.61-2.25,1.26-4.47,2-6.64.09-.31.19-.62.29-.93.34-1.05.69-2.1,1-3.13.08-.25.17-.49.25-.74l1-2.67.2-.52q1.22-3.24,2.53-6.37l.39-.9q1.23-2.9,2.57-5.68c.14-.31.29-.61.43-.91l-.12.25a200.17,200.17,0,0,1,74.19-87.16c4.81-4.44,9.5-8.85,14-13.29l2.22-2.22c31.57-31.92,51.35-66.18,24.7-128.38l-1.35-3a176.93,176.93,0,0,1,99.3,158Zm132.57,247.9a199.85,199.85,0,0,1-20.95,24.86L110,455.83A201,201,0,0,1,88.81,431.2Zm-277.29,46.1,232.51-1.3h.8q-6.06,4.49-12.46,8.52a199.43,199.43,0,0,1-32.38,16.47l-146,.82a199.29,199.29,0,0,1-44.51-24.06l-.61-.44Z"/>
</svg>
