<svg height="500" viewBox="0 0 500 500" width="500" xmlns="http://www.w3.org/2000/svg" xmlns:xlink="http://www.w3.org/1999/xlink"><linearGradient id="a" gradientUnits="userSpaceOnUse" x1="251.17" x2="248.74" y1="2.44" y2="515.68"><stop offset="0" stop-color="#faa64c"/><stop offset=".58" stop-color="#ff5071"/></linearGradient><path d="m0 0h500v500h-500z" fill="url(#a)"/><path d="m0 0h500v500h-500z" fill="none"/><path d="m88.8 221.25c0 7.93 5.74 14.33 12.73 14.29s12.61-6.5 12.56-14.43a15.65 15.65 0 0 0 -.65-4.48v-.14a71.88 71.88 0 0 1 7.78 17.73 36.83 36.83 0 0 1 1.41 11.5v1.83a39.57 39.57 0 0 1 -5.54 20.5 2 2 0 0 0 -.35-.53l-14.84-16.16-14.08 8.32-15.34-17.32-23.59 25.52a1.76 1.76 0 0 0 -.33.49 40.91 40.91 0 0 1 -2.6-5.06 32.62 32.62 0 0 1 -3.23-12.77c0-.19 0-.38 0-.58v-.69-1.27c0-.32 0-.63 0-.95s0-.81 0-1.23c0-.09 0-.18 0-.28v-.45c0-.07 0-.14 0-.21 0-.65.12-1.3.2-2v-.22l.06-.48c0-.1 0-.2 0-.31l.05-.37.07-.43v-.29.14-.23-.09c0-.25.09-.5.14-.75v-.16c0-.22.08-.43.13-.64v-.09c0-.24.1-.46.16-.69v-.21c0-.21.1-.41.16-.61v-.06l.39-1.33.06-.18.21-.63.05-.15c.06-.18.13-.35.19-.53v-.1c.16-.44.33-.86.51-1.28l.08-.18c.16-.38.33-.76.51-1.13l.09-.19v.05a40.09 40.09 0 0 1 15.21-17.4c1-.89 1.9-1.77 2.8-2.66l.44-.44c6.32-6.38 10.27-13.24 4.94-25.68l-.27-.61a35.4 35.4 0 0 1 19.86 31.6zm26.51 49.58a39.07 39.07 0 0 1 -4.19 5l-56.44.32a39.92 39.92 0 0 1 -4.24-4.93zm-55.46 9.22 46.5-.26h.16q-1.2.9-2.49 1.71a39.73 39.73 0 0 1 -6.47 3.29l-29.19.21a39.67 39.67 0 0 1 -8.91-4.81l-.12-.09z"/><path d="m141.74 223.65h8.7l8.06 31.13 8.74-31.14h7.08l8.84 31.14 8-31.15h8.7l-11.73 42h-9.42l-7.94-27.71-7.77 27.72h-9.42z"/><path d="m215.74 259.43a8.35 8.35 0 0 0 6.72-3l6.24 3.6c-2.81 4.08-7.31 6.42-13.07 6.43-10.08 0-16.45-6.89-16.45-15.83s6.41-15.85 15.83-15.85c8.88 0 15.18 7 15.19 15.83a17.88 17.88 0 0 1 -.3 3.18h-22.62c1.08 3.96 4.38 5.64 8.46 5.64zm6.72-11.65a7.29 7.29 0 0 0 -7.45-6.05c-4.14 0-7 2.22-7.85 6.06z"/><path d="m267.7 250.57c0 8.94-6.59 15.85-14.63 15.85-4.38 0-7.56-1.61-9.72-4.37v3.54h-7.74v-42h7.74v15.54c2.16-2.76 5.34-4.38 9.72-4.39 8.02 0 14.62 6.89 14.63 15.83zm-7.74 0a8.31 8.31 0 1 0 -8.34 8.46 8.08 8.08 0 0 0 8.38-8.45z"/><path d="m300.4 252.59c0 9-7.07 13.81-15 13.81-6.3 0-12-2.87-14.41-8.87l7.08-4.08c1 3.12 3.36 4.85 7.32 4.85 4.32 0 6.72-2.28 6.72-5.7s-2.4-5.7-6.72-5.7h-1.8l-3.19-4.79 8.28-10.81h-16.43v-7.74h26.4v6.84l-7.85 10.21c5.45 1.61 9.59 5.8 9.6 11.98z"/><path d="m304.29 244.55c0-12.3 9.11-21.84 21.83-21.85a20.89 20.89 0 0 1 18.06 9.89l-7.13 4.14a12.11 12.11 0 0 0 -10.93-6c-8.21 0-13.61 5.71-13.61 13.81s5.41 13.73 13.63 13.73c4.8 0 8.94-2.29 10.92-5.95l7.14 4.13a20.77 20.77 0 0 1 -18.05 9.92c-12.72.01-21.85-9.58-21.86-21.82z"/><path d="m379.65 235.5v30h-7.74v-3.5a11.91 11.91 0 0 1 -9.77 4.38c-8 0-14.59-6.89-14.59-15.83s6.59-15.84 14.57-15.85a11.94 11.94 0 0 1 9.78 4.38v-3.54zm-7.73 15a8.31 8.31 0 1 0 -8.34 8.46 8.08 8.08 0 0 0 8.34-8.45z"/><path d="m431.19 247v18.48h-7.73v-17.94c0-3.54-1.8-5.69-5-5.69-3.42 0-5.58 2.28-5.57 6.78v16.86h-7.74v-17.94c0-3.54-1.8-5.7-5-5.7s-5.64 2.28-5.63 6.78v16.86h-7.74v-30h7.74v3.18c1.68-2.52 4.5-4 8.34-4a9 9 0 0 1 8.16 4.31c1.86-2.7 4.86-4.32 8.94-4.32 6.73-.03 11.23 4.83 11.23 12.34z"/><path d="m469.9 250.45c0 8.93-6.59 15.84-14.63 15.84-4.38 0-7.56-1.61-9.73-4.37v15.54h-7.73v-42h7.74v3.54c2.16-2.76 5.34-4.38 9.72-4.39 8.02 0 14.62 6.89 14.63 15.84zm-7.74 0a8.31 8.31 0 1 0 -8.34 8.46 8.07 8.07 0 0 0 8.34-8.46z"/></svg>