<svg id="图层_1" data-name="图层 1" xmlns="http://www.w3.org/2000/svg" xmlns:xlink="http://www.w3.org/1999/xlink" width="500" height="500" viewBox="0 0 500 500">
  <defs>
    <style>
      .cls-1 {
        fill: url(#未命名的渐变_13);
      }

      .cls-2 {
        fill: none;
      }

      .cls-3 {
        fill: #fff;
      }

      .cls-4 {
        isolation: isolate;
      }
    </style>
    <linearGradient id="未命名的渐变_13" data-name="未命名的渐变 13" x1="251.17" y1="2.44" x2="248.74" y2="515.68" gradientUnits="userSpaceOnUse">
      <stop offset="0" stop-color="#faa64c"/>
      <stop offset="0.58" stop-color="#ff5071"/>
    </linearGradient>
  </defs>
  <rect class="cls-1" width="500" height="500"/>
  <rect class="cls-2" width="500" height="500"/>
  <path class="cls-3" d="M257.33,170.83c.05,9.91,7.18,17.9,15.91,17.85s15.76-8.12,15.71-18a20.11,20.11,0,0,0-.82-5.6l0-.06v-.12A90,90,0,0,1,297.86,187a46.27,46.27,0,0,1,1.76,14.37c0,.72.05,1.48.05,2.28a49.45,49.45,0,0,1-6.93,25.63,2.38,2.38,0,0,0-.44-.66l-18.59-20.2-17.6,10.41-19.18-21.66-29.48,31.9a2.08,2.08,0,0,0-.42.61,49.67,49.67,0,0,1-3.25-6.33,40.63,40.63,0,0,1-4-15.95c0-.24,0-.48,0-.72s0-.58,0-.87v-1.56c0-.39,0-.78,0-1.18s0-1,.07-1.53c0-.12,0-.24,0-.35s0-.38,0-.57l0-.26c.06-.81.15-1.63.25-2.46l0-.28c0-.2.05-.4.08-.6l.06-.38.07-.47.08-.54v0l.06-.36,0,.18,0-.29,0-.11c.06-.32.11-.63.17-.94a1.42,1.42,0,0,0,0-.2c0-.27.11-.53.17-.79l0-.13c.07-.29.13-.57.2-.85l.07-.27c.06-.25.12-.51.19-.76l0-.07c.15-.56.32-1.12.49-1.66,0-.08,0-.16.07-.23.09-.27.17-.53.26-.79a1.34,1.34,0,0,1,.07-.18c.07-.22.15-.45.24-.67l0-.13c.21-.54.42-1.07.64-1.59l.09-.23c.21-.48.43-.95.65-1.42l.11-.22,0,.06a50.11,50.11,0,0,1,18.55-21.79c1.2-1.11,2.38-2.21,3.5-3.32l.55-.56c7.9-8,12.84-16.54,6.18-32.09l-.34-.77A44.27,44.27,0,0,1,257.3,165Zm33.14,62a51,51,0,0,1-5.24,6.22l-70.54.39a49.54,49.54,0,0,1-5.31-6.16Zm-69.32,11.53,58.12-.33h.2c-1,.75-2,1.46-3.11,2.13a49.63,49.63,0,0,1-8.09,4.12l-36.49.2a49.57,49.57,0,0,1-11.13-6l-.15-.11Z"/>
  <g id="页面-1">
    <g id="logo1">
      <g id="Web3Camp" class="cls-4">
        <g class="cls-4">
          <path class="cls-3" d="M47.92,301.38H58.53l9.8,37.95L79,301.38h8.63l10.75,37.95,9.8-37.95h10.6l-14.33,51.19H93l-9.66-33.79-9.58,33.79H62.26Z"/>
          <path class="cls-3" d="M138.11,345a10.15,10.15,0,0,0,8.19-3.66l7.6,4.39c-3.43,5-8.92,7.83-15.94,7.83-12.29,0-20-8.42-20-19.31S125.74,315,137.23,315c10.82,0,18.5,8.56,18.5,19.31a21.65,21.65,0,0,1-.36,3.87H127.79C129.11,343,133.13,345,138.11,345Zm8.19-14.19a8.87,8.87,0,0,0-9.07-7.39c-5,0-8.49,2.71-9.58,7.39Z"/>
          <path class="cls-3" d="M201.44,334.29c0,10.89-8,19.31-17.84,19.31-5.34,0-9.22-2-11.85-5.34v4.31h-9.44V301.38h9.44v18.94c2.63-3.37,6.51-5.34,11.85-5.34C193.4,315,201.44,323.39,201.44,334.29Zm-9.43,0c0-6.15-4.32-10.32-10.17-10.32s-10.09,4.17-10.09,10.32,4.31,10.31,10.09,10.31S192,340.43,192,334.29Z"/>
          <path class="cls-3" d="M241.3,336.77c0,11-8.63,16.83-18.28,16.83-7.68,0-14.63-3.52-17.55-10.83l8.63-5c1.24,3.8,4.09,5.92,8.92,5.92,5.27,0,8.19-2.78,8.19-7s-2.92-6.94-8.19-6.94h-2.19L217,324,227,310.81H207v-9.43h32.18v8.33l-9.58,12.44C236.26,324.12,241.3,329.24,241.3,336.77Z"/>
          <path class="cls-3" d="M246.06,327c0-15,11.12-26.62,26.62-26.62a25.52,25.52,0,0,1,22,12.07L286,317.47c-2.48-4.54-7.46-7.32-13.31-7.32-10,0-16.6,7-16.6,16.82s6.58,16.75,16.6,16.75c5.85,0,10.9-2.78,13.31-7.24l8.71,5a25.34,25.34,0,0,1-22,12.07C257.18,353.6,246.06,341.89,246.06,327Z"/>
          <path class="cls-3" d="M337.92,316v36.57h-9.43v-4.31c-2.64,3.29-6.58,5.34-11.92,5.34-9.73,0-17.78-8.42-17.78-19.31s8-19.31,17.78-19.31c5.34,0,9.28,2,11.92,5.34V316Zm-9.43,18.53c0-6.14-4.32-10.31-10.18-10.3s-10.08,4.17-10.08,10.31,4.32,10.31,10.1,10.31S328.49,340.67,328.49,334.53Z"/>
          <path class="cls-3" d="M400.75,330v22.53h-9.44V330.7c0-4.31-2.19-6.94-6.14-6.94-4.17,0-6.8,2.77-6.8,8.26v20.55h-9.44V330.7c0-4.31-2.19-6.94-6.14-6.94s-6.88,2.77-6.88,8.26v20.55h-9.43V316h9.43v3.88c2-3.07,5.49-4.9,10.17-4.9s7.9,1.9,9.95,5.27c2.26-3.3,5.92-5.27,10.9-5.27C395.26,315,400.75,320.9,400.75,330Z"/>
          <path class="cls-3" d="M447.92,334.29c0,10.89-8,19.31-17.84,19.31-5.34,0-9.22-2-11.85-5.34V367.2H408.8V316h9.43v4.32c2.63-3.37,6.51-5.34,11.85-5.34C439.88,315,447.92,323.39,447.92,334.29Zm-9.43,0c0-6.15-4.31-10.32-10.17-10.32s-10.09,4.17-10.09,10.32,4.32,10.31,10.09,10.31S438.49,340.43,438.49,334.29Z"/>
        </g>
      </g>
    </g>
  </g>
</svg>
